<svg width="464" height="464" viewBox="0 0 464 464" fill="none" xmlns="http://www.w3.org/2000/svg">
<path d="M232 0C104.08 0 0 104.08 0 232C0 359.92 104.08 464 232 464C359.92 464 464 359.92 464 232C464 104.08 359.92 0 232 0ZM232 432C121.72 432 32 342.28 32 232C32 121.72 121.72 32 232 32C342.28 32 432 121.72 432 232C432 342.28 342.28 432 232 432ZM294.224 192.4L254.624 232L294.224 271.6C295.752 273.076 296.971 274.841 297.81 276.794C298.648 278.746 299.09 280.845 299.108 282.97C299.126 285.094 298.722 287.201 297.917 289.167C297.113 291.134 295.925 292.92 294.422 294.422C292.92 295.925 291.134 297.113 289.167 297.917C287.201 298.722 285.094 299.126 282.97 299.108C280.845 299.09 278.746 298.648 276.794 297.81C274.841 296.971 273.076 295.752 271.6 294.224L232 254.624L192.4 294.224C189.28 297.344 185.184 298.912 181.088 298.912C176.992 298.912 172.896 297.344 169.776 294.224C166.776 291.224 165.091 287.155 165.091 282.912C165.091 278.669 166.776 274.6 169.776 271.6L209.376 232L169.776 192.4C168.248 190.924 167.029 189.159 166.19 187.206C165.352 185.254 164.91 183.155 164.892 181.03C164.874 178.906 165.278 176.799 166.083 174.833C166.887 172.866 168.075 171.08 169.578 169.578C171.08 168.075 172.866 166.887 174.833 166.083C176.799 165.278 178.906 164.874 181.03 164.892C183.155 164.91 185.254 165.352 187.206 166.19C189.159 167.029 190.924 168.248 192.4 169.776L232 209.376L271.6 169.776C273.076 168.248 274.841 167.029 276.794 166.19C278.746 165.352 280.845 164.91 282.97 164.892C285.094 164.874 287.201 165.278 289.167 166.083C291.134 166.887 292.92 168.075 294.422 169.578C295.925 171.08 297.113 172.866 297.917 174.833C298.722 176.799 299.126 178.906 299.108 181.03C299.09 183.155 298.648 185.254 297.81 187.206C296.971 189.159 295.752 190.924 294.224 192.4Z" fill="#FF502E"/>
</svg>
