<?xml version="1.0" encoding="utf-8"?>
<!-- Generator: Adobe Illustrator 24.2.3, SVG Export Plug-In . SVG Version: 6.00 Build 0)  -->
<svg version="1.1" id="Layer_1" xmlns="http://www.w3.org/2000/svg" xmlns:xlink="http://www.w3.org/1999/xlink" x="0px" y="0px"
	 viewBox="0 0 250 75" style="enable-background:new 0 0 250 75;" xml:space="preserve">
<style type="text/css">
	.st0{fill:none;}
	.st1{fill:#BB0000;}
	.st2{font-family:'MinionPro-Regular';}
	.st3{font-size:51px;}
	.st4{fill:#3A3A3A;}
	.st5{fill:#565656;}
	.st6{fill:#757575;}
	.st7{fill:#B5B5B5;}
	.st8{fill:#BFBFBF;}
	.st9{fill:#474747;}
	.st10{fill:#3D3D3D;}
	.st11{fill:#8C8C8C;}
	.st12{fill:#282828;}
	.st13{fill:#545454;}
	.st14{fill:#666666;}
	.st15{fill:#3F3F3F;}
	.st16{fill:#6D6D6D;}
	.st17{fill:#CECECE;}
	.st18{fill:#DBDBDB;}
	.st19{fill:#595959;}
	.st20{fill:#4C4C4C;}
	.st21{fill:#ADADAD;}
	.st22{fill:#515151;}
	.st23{fill:#4F4F4F;}
	.st24{fill:#BCBCBC;}
	.st25{fill:#B2B2B2;}
	.st26{fill:#444444;}
</style>
<rect x="53.4" y="17.3" class="st0" width="199" height="53.2"/>
<text transform="matrix(1 0 0 1 53.3981 53.5689)" class="st1 st2 st3">Robinson</text>
<g id="Layer_2_1_">
	<g id="Layer_1-2">
		<rect x="0.6" y="17.2" class="st4" width="4.4" height="4.4"/>
		<rect x="5.8" y="17.2" class="st5" width="4.4" height="4.4"/>
		<rect x="10.9" y="17.2" class="st6" width="4.4" height="4.4"/>
		<rect x="16.2" y="17.2" class="st7" width="4.4" height="4.4"/>
		<rect x="21.4" y="17.2" class="st8" width="4.4" height="4.4"/>
		<rect x="26.6" y="17.2" class="st7" width="4.4" height="4.4"/>
		<rect x="31.7" y="17.2" class="st5" width="4.4" height="4.4"/>
		<rect x="36.7" y="17.2" class="st9" width="4.4" height="4.4"/>
		<rect x="0.6" y="22.3" class="st10" width="4.4" height="4.4"/>
		<rect x="5.8" y="22.3" class="st11" width="4.4" height="4.4"/>
		<rect x="10.9" y="22.3" class="st12" width="4.4" height="4.4"/>
		<rect x="16.2" y="22.3" class="st9" width="4.4" height="4.4"/>
		<rect x="21.4" y="22.3" class="st13" width="4.4" height="4.4"/>
		<rect x="26.6" y="22.3" class="st4" width="4.4" height="4.4"/>
		<rect x="31.7" y="22.3" class="st14" width="4.4" height="4.4"/>
		<rect x="36.7" y="22.3" class="st15" width="4.4" height="4.4"/>
		<rect x="0.6" y="27.3" class="st9" width="4.4" height="4.4"/>
		<rect x="5.8" y="27.3" class="st16" width="4.4" height="4.4"/>
		<rect x="10.9" y="27.3" class="st4" width="4.4" height="4.4"/>
		<rect x="16.2" y="27.3" class="st17" width="4.4" height="4.4"/>
		<rect x="21.4" y="27.3" class="st18" width="4.4" height="4.4"/>
		<rect x="26.6" y="27.3" class="st15" width="4.4" height="4.4"/>
		<rect x="31.7" y="27.3" class="st5" width="4.4" height="4.4"/>
		<rect x="36.7" y="27.3" class="st9" width="4.4" height="4.4"/>
		<rect x="0.6" y="32.4" class="st15" width="4.4" height="4.4"/>
		<rect x="5.8" y="32.4" class="st16" width="4.4" height="4.4"/>
		<rect x="10.9" y="32.4" class="st10" width="4.4" height="4.4"/>
		<rect x="16.2" y="32.4" class="st17" width="4.4" height="4.4"/>
		<rect x="21.4" y="32.4" class="st17" width="4.4" height="4.4"/>
		<rect x="26.6" y="32.4" class="st4" width="4.4" height="4.4"/>
		<rect x="31.7" y="32.4" class="st19" width="4.4" height="4.4"/>
		<rect x="36.7" y="32.4" class="st9" width="4.4" height="4.4"/>
		<rect x="0.6" y="37.5" class="st20" width="4.4" height="4.4"/>
		<rect x="5.8" y="37.5" class="st16" width="4.4" height="4.4"/>
		<rect x="10.9" y="37.5" class="st10" width="4.4" height="4.4"/>
		<rect x="16.2" y="37.5" class="st9" width="4.4" height="4.4"/>
		<rect x="21.4" y="37.5" class="st20" width="4.4" height="4.4"/>
		<rect x="26.6" y="37.5" class="st21" width="4.4" height="4.4"/>
		<rect x="31.7" y="37.5" class="st14" width="4.4" height="4.4"/>
		<rect x="36.7" y="37.5" class="st9" width="4.4" height="4.4"/>
		<rect x="0.6" y="42.6" class="st20" width="4.4" height="4.4"/>
		<rect x="5.8" y="42.6" class="st16" width="4.4" height="4.4"/>
		<rect x="10.9" y="42.6" class="st10" width="4.4" height="4.4"/>
		<rect x="16.2" y="42.6" class="st17" width="4.4" height="4.4"/>
		<rect x="21.4" y="42.6" class="st18" width="4.4" height="4.4"/>
		<rect x="26.6" y="42.6" class="st12" width="4.4" height="4.4"/>
		<rect x="31.7" y="42.6" class="st22" width="4.4" height="4.4"/>
		<rect x="36.7" y="42.6" class="st23" width="4.4" height="4.4"/>
		<rect x="0.6" y="47.8" class="st20" width="4.4" height="4.4"/>
		<rect x="5.8" y="47.8" class="st6" width="4.4" height="4.4"/>
		<rect x="10.9" y="47.8" class="st12" width="4.4" height="4.4"/>
		<rect x="16.2" y="47.8" class="st24" width="4.4" height="4.4"/>
		<rect x="21.4" y="47.8" class="st25" width="4.4" height="4.4"/>
		<rect x="26.6" y="47.8" class="st4" width="4.4" height="4.4"/>
		<rect x="31.7" y="47.8" class="st14" width="4.4" height="4.4"/>
		<rect x="36.7" y="47.8" class="st23" width="4.4" height="4.4"/>
		<rect x="0.6" y="52.8" class="st26" width="4.4" height="4.4"/>
		<rect x="5.8" y="52.8" class="st19" width="4.4" height="4.4"/>
		<rect x="10.9" y="52.8" class="st13" width="4.4" height="4.4"/>
		<rect x="16.2" y="52.8" class="st17" width="4.4" height="4.4"/>
		<rect x="21.4" y="52.8" class="st17" width="4.4" height="4.4"/>
		<rect x="26.6" y="52.8" class="st14" width="4.4" height="4.4"/>
		<rect x="31.7" y="52.8" class="st19" width="4.4" height="4.4"/>
		<rect x="36.7" y="52.8" class="st4" width="4.4" height="4.4"/>
	</g>
</g>
</svg>
