<svg id="Layer_1" data-name="Layer 1" xmlns="http://www.w3.org/2000/svg" viewBox="0 0 250.45 112.53"><defs><style>.cls-1{fill:#fff;}.cls-2{fill:#569fd3;}.cls-3,.cls-5{fill:none;stroke:#fff;}.cls-3{stroke-width:0.79px;}.cls-4{fill:#695e4a;}.cls-5{stroke-width:0.32px;}</style></defs><title>Woolgar-Logo-2017</title><line class="cls-1" x1="-177.64" y1="-285.87" x2="-177.64" y2="-285.87"/><rect class="cls-2" x="170.69" y="19.09" width="73.22" height="81.59"/><path class="cls-1" d="M394.48,315.73c0-5-5.53-8.62-11.92-8.62-8.72,0-12.5,5.66-12.5,12.31,0,5.66,3.92,11.94,7.85,15.39,6.54-4.56,16.57-10.34,16.57-19.08m-18,28.32c-8,7.39-19.62,12.43-19.62,23.64C356.83,375.32,364,381,373,381c10.32,0,18-10,25.15-15Zm27.18,17.48,18.17-15,5.67,4.68-18.6,15.39,17.44,18.1-6.83,3.45-16.42-16.74c-8.72,6.77-16.86,16.74-29.94,16.74-14.1,0-24.71-8.62-24.71-20.8,0-11.95,9.88-17.85,19.33-25.49l3.78-3.2c-5.38-5.54-9.88-12.06-9.88-19.45,0-11.33,8.72-18.47,21.65-18.47,9.89,0,19.62,6.28,19.62,15.27,0,10.47-12.5,17.24-20.2,23.88Z" transform="translate(-177.64 -285.87)"/><path class="cls-3" d="M403.63,361.53l18.17-15,5.67,4.68-18.6,15.39,17.44,18.1-6.83,3.45-16.42-16.74c-8.72,6.77-16.86,16.74-29.94,16.74-14.1,0-24.71-8.62-24.71-20.8,0-11.95,9.88-17.85,19.33-25.49l3.78-3.2c-5.38-5.54-9.88-12.06-9.88-19.45,0-11.33,8.72-18.47,21.65-18.47,9.89,0,19.62,6.28,19.62,15.27,0,10.47-12.5,17.24-20.2,23.88Z" transform="translate(-177.64 -285.87)"/><path class="cls-3" d="M376.45,344.05c-8,7.39-19.62,12.43-19.62,23.64,0,7.63,7.12,13.3,16.13,13.3,10.32,0,18-10,25.15-15Z" transform="translate(-177.64 -285.87)"/><path class="cls-3" d="M394.48,315.73c0-5-5.52-8.62-11.92-8.62-8.72,0-12.5,5.66-12.5,12.31,0,5.66,3.92,11.94,7.85,15.39C384.45,330.26,394.48,324.48,394.48,315.73Z" transform="translate(-177.64 -285.87)"/><path class="cls-4" d="M246.31,297.48a39.91,39.91,0,0,1,1,4.73,20.81,20.81,0,0,1,.62-4.73L250.41,287h4.08l-5.05,19.32h-4L242,294a14.36,14.36,0,0,1-.6-3.48,16.1,16.1,0,0,1-.57,3.48l-3.49,12.32h-4l-5-19.32h4.13L235,297.73a25.81,25.81,0,0,1,.54,4.35,41.4,41.4,0,0,1,1-4.54L239.39,287h4.05l2.86,10.48" transform="translate(-177.64 -285.87)"/><path class="cls-4" d="M261.45,296.4a3.47,3.47,0,1,0,3.4,3.46,3.2,3.2,0,0,0-3.4-3.46m0,10.43a6.95,6.95,0,1,1,7.21-6.94A6.88,6.88,0,0,1,261.47,306.83Z" transform="translate(-177.64 -285.87)"/><path class="cls-4" d="M277.63,296.4a3.47,3.47,0,1,0,3.4,3.46,3.2,3.2,0,0,0-3.4-3.46m0,10.43a6.95,6.95,0,1,1,7.21-6.94A6.88,6.88,0,0,1,277.65,306.83Z" transform="translate(-177.64 -285.87)"/><rect class="cls-4" x="109.93" width="3.75" height="20.45"/><path class="cls-4" d="M301.15,296.13c-2.05,0-3.3,1.38-3.3,3.7s1.19,3.65,3.27,3.65,3.27-1.35,3.27-3.65-1.3-3.7-3.24-3.7m5.57,14.29c-1.16,1.24-2.92,1.78-5.37,1.78-4.19,0-6.38-1.32-6.57-4.05h4.13c.11,1,.89,1.46,2.43,1.46,2.19,0,2.89-1.14,2.89-3.43v-1.84a4.73,4.73,0,0,1-4.32,2.35c-3.51,0-5.86-2.62-5.86-6.89s2.22-6.86,5.86-6.86a4.83,4.83,0,0,1,4.35,2.57v-2.13h3.54V306.1C307.8,307.91,307.8,309.29,306.72,310.42Z" transform="translate(-177.64 -285.87)"/><path class="cls-4" d="M317.53,296.05c-2.06,0-3.3,1.43-3.3,3.78s1.22,3.7,3.27,3.7,3.27-1.35,3.27-3.7-1.32-3.78-3.24-3.78m3,10.27.05-1.86a4.75,4.75,0,0,1-4.46,2.37c-3.35,0-5.73-2.67-5.73-7s2.19-6.92,5.86-6.92a4.74,4.74,0,0,1,4.35,2.57v-2.13h3.57v12.94Z" transform="translate(-177.64 -285.87)"/><path class="cls-4" d="M335.35,292.94a10.3,10.3,0,0,1,1.4.16l-.57,4.05a4.34,4.34,0,0,0-1.76-.35c-2.4,0-3.21,1.22-3.21,3.81v5.7h-3.76V293.38h3.7l-.08,3.32c.76-2.51,2.16-3.75,4.27-3.75" transform="translate(-177.64 -285.87)"/><path class="cls-4" d="M177.64,317.53h4.57l3.76,12c.11.35.4,1.57.81,3.65a23.3,23.3,0,0,1,.78-3.78l3.81-11.91h4.51l-7.18,19.31h-3.92l-7.13-19.31" transform="translate(-177.64 -285.87)"/><path class="cls-4" d="M202.15,326.57c-2,0-3.29,1.43-3.29,3.78s1.21,3.7,3.27,3.7,3.27-1.35,3.27-3.7-1.32-3.78-3.24-3.78m3,10.27.05-1.86a4.75,4.75,0,0,1-4.46,2.37c-3.35,0-5.73-2.67-5.73-7s2.19-6.92,5.86-6.92a4.74,4.74,0,0,1,4.35,2.57V323.9h3.56v12.94Z" transform="translate(-177.64 -285.87)"/><path class="cls-4" d="M212.09,323.9h3.68v2a5.82,5.82,0,0,1,4.78-2.46,4.32,4.32,0,0,1,4.13,2.05,6.82,6.82,0,0,1,.54,3.35v8h-3.75v-6.4c0-2.46-.21-3.92-2.46-3.92a3,3,0,0,0-2.51,1.24,4.43,4.43,0,0,0-.65,2.87v6.21h-3.75V323.9" transform="translate(-177.64 -285.87)"/><path class="cls-4" d="M245.13,328a38.88,38.88,0,0,1,1,4.73,20.91,20.91,0,0,1,.62-4.73l2.51-10.48h4.08l-5.05,19.31h-4l-3.46-12.32a14.4,14.4,0,0,1-.59-3.49,16.49,16.49,0,0,1-.57,3.49l-3.48,12.32h-4l-5-19.31h4.13l2.54,10.72a25.8,25.8,0,0,1,.54,4.35,41,41,0,0,1,1-4.54l2.83-10.53h4.05L245.13,328" transform="translate(-177.64 -285.87)"/><path class="cls-4" d="M255.53,323.9h3.76v12.94h-3.76V323.9m1.87-7.51a2.2,2.2,0,0,1,2.22,2.19,2.2,2.2,0,1,1-2.22-2.19Z" transform="translate(-177.64 -285.87)"/><path class="cls-4" d="M268.85,326.55a2.76,2.76,0,0,0-3,2.48h5.89a2.61,2.61,0,0,0-2.89-2.48m-3.11,4.75a2.91,2.91,0,0,0,3.16,2.78,3.3,3.3,0,0,0,3-1.59l3,1.51a6.66,6.66,0,0,1-6.13,3.35c-4.27,0-6.81-2.78-6.81-6.91a6.64,6.64,0,0,1,6.83-7c4.08,0,6.67,2.57,6.67,6.86,0,.32,0,.65-.05,1Z" transform="translate(-177.64 -285.87)"/><path class="cls-4" d="M284.11,337.35a6.95,6.95,0,1,1,3.46-13.07l0,3.78a4.14,4.14,0,0,0-3-1.27,3.31,3.31,0,0,0-3.48,3.54,3.34,3.34,0,0,0,3.59,3.57,3.59,3.59,0,0,0,2.92-1.35l0,3.92a6.56,6.56,0,0,1-3.46.89" transform="translate(-177.64 -285.87)"/><path class="cls-4" d="M290.13,316.39h3.67v7.27a17.27,17.27,0,0,1-.16,2.38,6.16,6.16,0,0,1,4.94-2.57c2,0,3.38.68,4.13,2.06a6.76,6.76,0,0,1,.54,3.35v8H299.5v-6.4c0-2.46-.21-3.92-2.46-3.92a3,3,0,0,0-2.52,1.24,4.46,4.46,0,0,0-.64,2.86v6.21h-3.76V316.39" transform="translate(-177.64 -285.87)"/><path class="cls-4" d="M312.58,326.55a2.75,2.75,0,0,0-3,2.48h5.89a2.62,2.62,0,0,0-2.89-2.48m-3.11,4.75a2.91,2.91,0,0,0,3.16,2.78,3.3,3.3,0,0,0,3-1.59l3,1.51a6.66,6.66,0,0,1-6.13,3.35c-4.27,0-6.81-2.78-6.81-6.91a6.65,6.65,0,0,1,6.83-7c4.08,0,6.67,2.57,6.67,6.86,0,.32,0,.65-.05,1Z" transform="translate(-177.64 -285.87)"/><path class="cls-4" d="M321.76,323.9h3.68v2a5.82,5.82,0,0,1,4.78-2.46c2,0,3.35.68,4.13,2.05a6.82,6.82,0,0,1,.54,3.35v8h-3.75v-6.4c0-2.46-.22-3.92-2.46-3.92a3,3,0,0,0-2.51,1.24,4.46,4.46,0,0,0-.65,2.87v6.21h-3.76V323.9" transform="translate(-177.64 -285.87)"/><path class="cls-4" d="M212.27,394.4c4.21,0,6.22-1.78,6.22-6.16s-2.05-6.16-6.22-6.16H210V394.4h2.29m-6.43-15.83h5.27c3.37,0,5.92.3,8,1.89a10.31,10.31,0,0,1-.05,15.64c-2.32,1.67-4.78,1.78-7.67,1.78h-5.59Z" transform="translate(-177.64 -285.87)"/><path class="cls-4" d="M229.26,391.75c0,2.13.7,3.18,2.84,3.18s2.84-1.08,2.84-3.18v-6.81h3.76v6.81c0,4.48-2,6.65-6.54,6.65s-6.62-2.19-6.62-6.65v-6.81h3.73v6.81" transform="translate(-177.64 -285.87)"/><path class="cls-4" d="M248.12,398.39a6.94,6.94,0,1,1,.05-13.88,6.58,6.58,0,0,1,3.4.81l0,3.78a4.13,4.13,0,0,0-3-1.27,3.3,3.3,0,0,0-3.49,3.54,3.34,3.34,0,0,0,3.59,3.56,3.58,3.58,0,0,0,2.92-1.35l0,3.92a6.53,6.53,0,0,1-3.46.89" transform="translate(-177.64 -285.87)"/><path class="cls-4" d="M260.52,388a3.47,3.47,0,1,0,3.4,3.46,3.21,3.21,0,0,0-3.4-3.46m0,10.43a6.95,6.95,0,1,1,7.21-6.95A6.88,6.88,0,0,1,260.54,398.39Z" transform="translate(-177.64 -285.87)"/><path class="cls-4" d="M270.78,387.88H269.1v-2.94h1.68V382c0-3.38,1.38-4.87,5.16-4.87a8.21,8.21,0,0,1,1.75.27v3a2.72,2.72,0,0,0-1.32-.35c-1.43,0-1.84.76-1.84,2.32v2.54h2.4v2.94h-2.4v10h-3.75v-10" transform="translate(-177.64 -285.87)"/><path class="cls-4" d="M279.45,387.88h-1.67v-2.94h1.67V382c0-3.38,1.38-4.87,5.16-4.87a8.23,8.23,0,0,1,1.75.27v3a2.72,2.72,0,0,0-1.32-.35c-1.43,0-1.84.76-1.84,2.32v2.54h2.4v2.94h-2.4v10h-3.76v-10" transform="translate(-177.64 -285.87)"/><path class="cls-4" d="M293.69,387.59a2.76,2.76,0,0,0-3,2.49h5.89a2.61,2.61,0,0,0-2.89-2.49m-3.11,4.76a2.91,2.91,0,0,0,3.16,2.78,3.31,3.31,0,0,0,3-1.59l3,1.51a6.66,6.66,0,0,1-6.13,3.35c-4.27,0-6.81-2.78-6.81-6.92a6.65,6.65,0,0,1,6.84-7c4.08,0,6.67,2.57,6.67,6.86,0,.32,0,.65-.05,1Z" transform="translate(-177.64 -285.87)"/><polyline class="cls-4" points="132.95 98.36 135.87 98.36 135.87 109.53 140.53 109.53 140.53 112.01 132.95 112.01 132.95 98.36"/><polyline class="cls-4" points="142.17 98.36 145.09 98.36 145.09 109.53 149.75 109.53 149.75 112.01 142.17 112.01 142.17 98.36"/><path class="cls-4" d="M332.4,390.39c1.53,0,2.27-.57,2.27-2.08s-.72-1.93-2.27-1.93H332v4h.42M329,384.23h3.36c3.5,0,5.25,1.28,5.25,4.2,0,2.6-1.77,4.24-4.87,4.24H332v5.21H329Z" transform="translate(-177.64 -285.87)"/><path class="cls-4" d="M350,299.64a2.79,2.79,0,0,0,1.47-.23,1.14,1.14,0,0,0,.48-1,1.12,1.12,0,0,0-.59-1,2.15,2.15,0,0,0-1-.17h-.8v2.41H350m0-3.35c1.11,0,1.61-.25,1.61-1s-.52-1.12-1.61-1.12h-.47v2.17Zm-1.68-3.2h1.91a3,3,0,0,1,1.87.38,1.94,1.94,0,0,1,.74,1.6,1.5,1.5,0,0,1-1.09,1.57,1.72,1.72,0,0,1,1.42,1.87,2.23,2.23,0,0,1-.62,1.58c-.54.54-1.26.57-2.32.57h-1.92Z" transform="translate(-177.64 -285.87)"/><path class="cls-4" d="M360.11,297.69l-.77-1.72a7.23,7.23,0,0,1-.28-.86,5.91,5.91,0,0,1-.28.86l-.77,1.72h2.11m.43,1h-3l-.88,1.95h-1.29L359,292.8l3.67,7.87H361.4Z" transform="translate(-177.64 -285.87)"/><path class="cls-4" d="M366.86,296.33c1.08,0,1.62-.13,1.62-1s-.52-1.13-1.62-1.13h-.22v2.17h.22m-.29,4.34h-1.16V293.1h1.72a3,3,0,0,1,1.88.42,2.06,2.06,0,0,1,.73,1.67,1.82,1.82,0,0,1-1.74,2l2.6,3.44h-1.39l-2.52-3.39h-.14Z" transform="translate(-177.64 -285.87)"/><path class="cls-4" d="M374.78,296.33c1.08,0,1.62-.13,1.62-1s-.52-1.13-1.62-1.13h-.22v2.17h.22m-.29,4.34h-1.15V293.1H375a3,3,0,0,1,1.88.42,2.06,2.06,0,0,1,.73,1.67,1.82,1.82,0,0,1-1.74,2l2.6,3.44h-1.39l-2.52-3.39h-.14Z" transform="translate(-177.64 -285.87)"/><rect class="cls-4" x="203.63" y="7.23" width="1.23" height="7.57"/><path class="cls-4" d="M386.8,298.7a1.37,1.37,0,0,0,1.46,1,1.08,1.08,0,0,0,1.19-1.12c0-.74-.56-.92-1.34-1.3-1.35-.66-2.09-1.16-2.09-2.31a2.07,2.07,0,0,1,2.28-2.08,2.1,2.1,0,0,1,2.18,1.25l-1,.5a1.26,1.26,0,0,0-1.12-.69,1,1,0,0,0-1.08,1c0,.73.59,1,1.44,1.35,1.33.62,2,1.15,2,2.24a2.26,2.26,0,0,1-2.51,2.34,2.21,2.21,0,0,1-2.39-1.72l1-.46" transform="translate(-177.64 -285.87)"/><polyline class="cls-4" points="218.87 14.8 217.64 14.8 217.64 8.28 215.62 8.28 215.62 7.23 220.86 7.23 220.86 8.28 218.87 8.28 218.87 14.8"/><polyline class="cls-4" points="223.8 7.23 228.02 7.23 228.02 8.28 225.02 8.28 225.02 10.17 228.02 10.17 228.02 11.25 225.02 11.25 225.02 13.69 228.02 13.69 228.02 14.8 223.8 14.8 223.8 7.23"/><path class="cls-4" d="M410.51,296.33c1.08,0,1.62-.13,1.62-1s-.52-1.13-1.62-1.13h-.22v2.17h.22m-.3,4.34h-1.16V293.1h1.72a3,3,0,0,1,1.89.42,2.08,2.08,0,0,1,.73,1.67,1.82,1.82,0,0,1-1.74,2l2.6,3.44h-1.39l-2.52-3.39h-.13Z" transform="translate(-177.64 -285.87)"/><path class="cls-4" d="M417.53,298.7a1.36,1.36,0,0,0,1.46,1,1.08,1.08,0,0,0,1.2-1.12c0-.74-.56-.92-1.34-1.3-1.34-.66-2.09-1.16-2.09-2.31a2.07,2.07,0,0,1,2.28-2.08,2.1,2.1,0,0,1,2.18,1.25l-1,.5a1.26,1.26,0,0,0-1.13-.69,1,1,0,0,0-1.08,1c0,.73.59,1,1.45,1.35,1.33.62,2,1.15,2,2.24a2.26,2.26,0,0,1-2.51,2.34,2.21,2.21,0,0,1-2.4-1.72l1-.46" transform="translate(-177.64 -285.87)"/><path class="cls-4" d="M349.1,395.94a1.37,1.37,0,0,0,1.46,1,1.08,1.08,0,0,0,1.19-1.12c0-.74-.56-.92-1.34-1.3-1.35-.66-2.09-1.17-2.09-2.31a2.07,2.07,0,0,1,2.28-2.07,2.09,2.09,0,0,1,2.18,1.25l-1,.5a1.27,1.27,0,0,0-1.12-.69,1,1,0,0,0-1.08,1c0,.74.6,1,1.44,1.35,1.33.61,2,1.15,2,2.24a2.26,2.26,0,0,1-2.51,2.34,2.2,2.2,0,0,1-2.39-1.71l1-.45" transform="translate(-177.64 -285.87)"/><path class="cls-4" d="M361.72,392.13a2.66,2.66,0,0,0-1.95-.82,2.71,2.71,0,0,0-2,.82,2.84,2.84,0,0,0-.81,2,2.81,2.81,0,0,0,.81,2,2.71,2.71,0,0,0,2,.82,2.68,2.68,0,0,0,1.95-.82,2.82,2.82,0,0,0,.82-2,2.85,2.85,0,0,0-.82-2m.91,4.82a4.11,4.11,0,0,1-5.73,0,3.84,3.84,0,0,1-1.17-2.81,3.88,3.88,0,0,1,1.17-2.82,4.13,4.13,0,0,1,5.73,0,3.89,3.89,0,0,1,1.19,2.82A3.84,3.84,0,0,1,362.63,396.95Z" transform="translate(-177.64 -285.87)"/><polyline class="cls-4" points="189.28 104.48 190.5 104.48 190.5 110.94 193.26 110.94 193.26 112.04 189.28 112.04 189.28 104.48"/><rect class="cls-4" x="195.97" y="104.48" width="1.23" height="7.57"/><path class="cls-4" d="M382,391.3a2.69,2.69,0,0,0-2.79,2.86,2.65,2.65,0,0,0,2.67,2.81,3.68,3.68,0,0,0,2.44-.95v1.38a3.9,3.9,0,0,1-2.35.71,4,4,0,0,1-2.9-1.12,4,4,0,0,1-1.15-2.85,3.91,3.91,0,0,1,1.16-2.85,4,4,0,0,1,2.87-1.13,4.14,4.14,0,0,1,2.45.78l-.07,1.24a3.51,3.51,0,0,0-2.33-.89" transform="translate(-177.64 -285.87)"/><rect class="cls-4" x="209.97" y="104.48" width="1.23" height="7.57"/><polyline class="cls-4" points="217.11 112.04 215.88 112.04 215.88 105.52 213.87 105.52 213.87 104.48 219.11 104.48 219.11 105.52 217.11 105.52 217.11 112.04"/><path class="cls-4" d="M404.66,392.13a2.68,2.68,0,0,0-2-.82,2.72,2.72,0,0,0-2,.82,2.83,2.83,0,0,0-.8,2,2.79,2.79,0,0,0,.8,2,2.73,2.73,0,0,0,3.91,0,2.82,2.82,0,0,0,.81-2,2.85,2.85,0,0,0-.81-2m.91,4.82a4.11,4.11,0,0,1-5.73,0,3.83,3.83,0,0,1-1.17-2.81,3.87,3.87,0,0,1,1.17-2.82,4.13,4.13,0,0,1,5.73,0,3.88,3.88,0,0,1,1.18,2.82A3.83,3.83,0,0,1,405.57,396.95Z" transform="translate(-177.64 -285.87)"/><path class="cls-4" d="M411.31,393.57c1.08,0,1.62-.13,1.62-1s-.52-1.14-1.62-1.14h-.22v2.17h.22m-.3,4.34h-1.16v-7.57h1.72a2.94,2.94,0,0,1,1.88.42,2.07,2.07,0,0,1,.73,1.66,1.82,1.82,0,0,1-1.73,2l2.6,3.44h-1.39l-2.51-3.39H411Z" transform="translate(-177.64 -285.87)"/><path class="cls-4" d="M418,395.94a1.37,1.37,0,0,0,1.46,1,1.09,1.09,0,0,0,1.2-1.12c0-.74-.56-.92-1.35-1.3-1.34-.66-2.08-1.17-2.08-2.31a2.07,2.07,0,0,1,2.28-2.07,2.09,2.09,0,0,1,2.18,1.25l-1,.5a1.26,1.26,0,0,0-1.12-.69,1,1,0,0,0-1.08,1c0,.74.59,1,1.44,1.35,1.34.61,2,1.15,2,2.24a2.26,2.26,0,0,1-2.51,2.34A2.2,2.2,0,0,1,417,396.4l1-.45" transform="translate(-177.64 -285.87)"/><path class="cls-4" d="M307,356.89h-1.68v-2.94H307V351c0-3.38,1.38-4.86,5.16-4.86a8.17,8.17,0,0,1,1.75.27v3a2.71,2.71,0,0,0-1.32-.35c-1.43,0-1.84.76-1.84,2.32v2.54h2.4v2.94h-2.4v10H307v-10" transform="translate(-177.64 -285.87)"/><path class="cls-4" d="M315.63,356.89H314v-2.94h1.67V351c0-3.38,1.38-4.86,5.16-4.86a8.17,8.17,0,0,1,1.75.27v3a2.72,2.72,0,0,0-1.32-.35c-1.43,0-1.84.76-1.84,2.32v2.54h2.4v2.94h-2.4v10h-3.76v-10" transform="translate(-177.64 -285.87)"/><path class="cls-4" d="M329.87,356.59a2.76,2.76,0,0,0-3,2.49h5.89a2.61,2.61,0,0,0-2.89-2.49m-3.11,4.76a2.91,2.91,0,0,0,3.16,2.78,3.31,3.31,0,0,0,3-1.59l3,1.51a6.66,6.66,0,0,1-6.13,3.35c-4.27,0-6.81-2.78-6.81-6.92a6.64,6.64,0,0,1,6.83-7c4.08,0,6.67,2.57,6.67,6.86,0,.32,0,.65-.05,1Z" transform="translate(-177.64 -285.87)"/><path class="cls-4" d="M298.56,353.94h3.76v12.94h-3.76V353.94m1.87-7.51a2.2,2.2,0,0,1,2.22,2.19,2.2,2.2,0,1,1-2.22-2.19Z" transform="translate(-177.64 -285.87)"/><path class="cls-4" d="M295.3,353.51a10.3,10.3,0,0,1,1.4.16l-.57,4.05a4.34,4.34,0,0,0-1.76-.35c-2.4,0-3.21,1.22-3.21,3.81v5.7h-3.76V353.94h3.7l-.08,3.32c.76-2.51,2.16-3.75,4.27-3.75" transform="translate(-177.64 -285.87)"/><path class="cls-4" d="M277.74,356.67c-2.05,0-3.3,1.38-3.3,3.7s1.19,3.65,3.27,3.65,3.27-1.35,3.27-3.65-1.3-3.7-3.24-3.7M283.31,371c-1.16,1.24-2.92,1.78-5.37,1.78-4.19,0-6.38-1.32-6.57-4.05h4.13c.11,1,.89,1.46,2.44,1.46,2.19,0,2.89-1.14,2.89-3.43v-1.84a4.73,4.73,0,0,1-4.32,2.35c-3.51,0-5.86-2.62-5.86-6.89s2.21-6.86,5.86-6.86a4.82,4.82,0,0,1,4.35,2.57v-2.13h3.54v12.72C284.39,368.45,284.39,369.83,283.31,371Z" transform="translate(-177.64 -285.87)"/><path class="cls-4" d="M261,363a2.18,2.18,0,0,0,2.35,1.62c1.24,0,2-.48,2-1.27,0-1.16-1.06-1.24-2.78-1.89-2.65-1-4.05-1.94-4.05-3.89,0-2.43,2.05-4.24,5.43-4.24,2.35,0,4.1,1,4.86,2.67L266,357.4a2.06,2.06,0,0,0-2.16-1.48c-1.13,0-1.86.51-1.86,1.24,0,1.05,1.13,1.32,3,1.94,2.64.87,3.92,1.95,3.92,4,0,2.49-2.05,4.19-5.51,4.19-2.73,0-4.7-1.08-5.32-2.78L261,363" transform="translate(-177.64 -285.87)"/><path class="cls-4" d="M249.71,357a3.47,3.47,0,1,0,3.4,3.46,3.2,3.2,0,0,0-3.4-3.46m0,10.43a6.95,6.95,0,1,1,7.21-6.94A6.88,6.88,0,0,1,249.74,367.44Z" transform="translate(-177.64 -285.87)"/><path class="cls-4" d="M236,367.49c-5.72,0-9.75-4-9.75-9.87s4.08-9.71,9.83-9.71a9.32,9.32,0,0,1,4.8,1.14l0,5.33a5.83,5.83,0,0,0-4.26-1.79,4.66,4.66,0,0,0-4.92,5,4.71,4.71,0,0,0,5.07,5,5.05,5.05,0,0,0,4.12-1.9l0,5.53a9.21,9.21,0,0,1-4.88,1.25" transform="translate(-177.64 -285.87)"/><path class="cls-5" d="M236,367.49c-5.72,0-9.75-4-9.75-9.87s4.08-9.71,9.83-9.71a9.32,9.32,0,0,1,4.8,1.14l0,5.33a5.83,5.83,0,0,0-4.26-1.79,4.66,4.66,0,0,0-4.92,5,4.71,4.71,0,0,0,5.07,5,5.05,5.05,0,0,0,4.12-1.9l0,5.53A9.21,9.21,0,0,1,236,367.49Z" transform="translate(-177.64 -285.87)"/></svg>